<svg width="16" height="16" viewBox="0 0 16 16" fill="none" xmlns="http://www.w3.org/2000/svg">
<path d="M15.7311 14.4745L9.26091 8L15.7311 1.5255C16.0866 1.17073 16.0866 0.620843 15.7311 0.266075C15.3756 -0.0886918 14.8246 -0.0886918 14.4691 0.266075L7.99887 6.74058L1.52867 0.283814C1.17317 -0.0709535 0.622134 -0.0709535 0.266629 0.283814C-0.0888763 0.638581 -0.0888763 1.18847 0.266629 1.54324L6.73682 8L0.266629 14.4745C-0.0888763 14.8293 -0.0888763 15.3792 0.266629 15.7339C0.622134 16.0887 1.17317 16.0887 1.52867 15.7339L7.99887 9.25942L14.4868 15.7339C14.8423 16.0887 15.3934 16.0887 15.7489 15.7339C16.0866 15.3792 16.0866 14.8115 15.7311 14.4745Z" fill="black"/>
</svg>
