<svg width="26" height="26" viewBox="0 0 26 26" fill="none" xmlns="http://www.w3.org/2000/svg">
<g filter="url(#filter0_dd_83_3)">
<path d="M21.6975 19.2838L14.4185 12L21.6975 4.71619C22.0974 4.31707 22.0974 3.69845 21.6975 3.29933C21.2976 2.90022 20.6776 2.90022 20.2777 3.29933L12.9987 10.5831L5.71976 3.31929C5.31981 2.92018 4.6999 2.92018 4.29996 3.31929C3.90001 3.7184 3.90001 4.33703 4.29996 4.73614L11.5789 12L4.29996 19.2838C3.90001 19.6829 3.90001 20.3016 4.29996 20.7007C4.6999 21.0998 5.31981 21.0998 5.71976 20.7007L12.9987 13.4169L20.2977 20.7007C20.6976 21.0998 21.3175 21.0998 21.7175 20.7007C22.0974 20.3016 22.0974 19.663 21.6975 19.2838Z" fill="black"/>
<path d="M19.9245 2.94541L19.924 2.9459L12.9982 9.87629L6.07294 2.96537C5.47782 2.37148 4.54189 2.37148 3.94677 2.96537C3.35108 3.55983 3.35108 4.4956 3.94677 5.09006L4.29996 4.73614L3.94677 5.09006L10.8716 12.0005L3.94677 18.9299C3.94673 18.9299 3.94669 18.93 3.94665 18.93C3.35108 19.5245 3.35112 20.4602 3.94677 21.0546C4.54189 21.6485 5.47782 21.6485 6.07294 21.0546L6.07343 21.0541L12.9992 14.1237L19.9445 21.0546C20.5396 21.6485 21.4756 21.6485 22.0707 21.0546L22.0708 21.0547L22.0796 21.0454C22.6382 20.4587 22.6529 19.5062 22.0469 18.9261L15.1254 12L22.0507 5.07011C22.6464 4.47565 22.6464 3.53987 22.0507 2.94541C21.4556 2.35153 20.5196 2.35153 19.9245 2.94541Z" stroke="white"/>
</g>
<defs>
<filter id="filter0_dd_83_3" x="0" y="0" width="26" height="26" filterUnits="userSpaceOnUse" color-interpolation-filters="sRGB">
<feFlood flood-opacity="0" result="BackgroundImageFix"/>
<feColorMatrix in="SourceAlpha" type="matrix" values="0 0 0 0 0 0 0 0 0 0 0 0 0 0 0 0 0 0 127 0" result="hardAlpha"/>
<feOffset dy="1"/>
<feGaussianBlur stdDeviation="1.5"/>
<feColorMatrix type="matrix" values="0 0 0 0 0 0 0 0 0 0 0 0 0 0 0 0 0 0 0.15 0"/>
<feBlend mode="normal" in2="BackgroundImageFix" result="effect1_dropShadow_83_3"/>
<feColorMatrix in="SourceAlpha" type="matrix" values="0 0 0 0 0 0 0 0 0 0 0 0 0 0 0 0 0 0 127 0" result="hardAlpha"/>
<feOffset dy="1"/>
<feGaussianBlur stdDeviation="1"/>
<feColorMatrix type="matrix" values="0 0 0 0 0 0 0 0 0 0 0 0 0 0 0 0 0 0 0.3 0"/>
<feBlend mode="normal" in2="effect1_dropShadow_83_3" result="effect2_dropShadow_83_3"/>
<feBlend mode="normal" in="SourceGraphic" in2="effect2_dropShadow_83_3" result="shape"/>
</filter>
</defs>
</svg>
