<svg width="38" height="38" viewBox="0 0 38 38" fill="none" xmlns="http://www.w3.org/2000/svg">
<path d="M3.5625 4.75C1.5957 4.75 0 6.3457 0 8.3125C0 9.4332 0.526953 10.4871 1.425 11.1625L17.575 23.275C18.4211 23.9059 19.5789 23.9059 20.425 23.275L36.575 11.1625C37.473 10.4871 38 9.4332 38 8.3125C38 6.3457 36.4043 4.75 34.4375 4.75H3.5625ZM0 13.0625V28.5C0 31.1199 2.13008 33.25 4.75 33.25H33.25C35.8699 33.25 38 31.1199 38 28.5V13.0625L21.85 25.175C20.1578 26.4441 17.8422 26.4441 16.15 25.175L0 13.0625Z" fill="#FFFCFC"/>
</svg>
