<svg width="16" height="18" viewBox="0 0 16 18" fill="none" xmlns="http://www.w3.org/2000/svg">
<g filter="url(#filter0_b_92_15)">
<path d="M13.3269 2.30354H11.0394V1.89857C11.0394 0.851694 10.0121 0 8.74943 0H7.25061C5.9879 0 4.96057 0.851694 4.96057 1.89857V2.30354H2.67316C1.19919 2.30354 0 3.29776 0 4.51978V6.07949H0.89528V16.9125C0.89528 17.5121 1.48372 18 2.20701 18H13.793C14.5163 18 15.1047 17.5121 15.1047 16.9125V6.07949H16V4.51975C16 3.29776 14.8008 2.30354 13.3269 2.30354ZM6.25042 1.89857C6.25042 1.44137 6.6991 1.06935 7.25065 1.06935H8.74947C9.30094 1.06935 9.74966 1.44133 9.74966 1.89857V2.30354H6.25047V1.89857H6.25042ZM13.8149 16.9125C13.8149 16.9225 13.8051 16.9306 13.793 16.9306H2.20705C2.19497 16.9306 2.18513 16.9225 2.18513 16.9125V6.07945H13.8149V16.9125ZM14.4598 5.01011H13.8149H2.18509H1.54016H1.28981V4.51975C1.28981 3.88739 1.91039 3.37292 2.67312 3.37292H13.3268C14.0896 3.37292 14.7101 3.88743 14.7101 4.51978V5.01011H14.4598Z" fill="black"/>
</g>
<path d="M5.52064 7.19202H4.23083V15.8181H5.52064V7.19202Z" fill="black"/>
<path d="M8.64503 7.19202H7.35522V15.8181H8.64503V7.19202Z" fill="black"/>
<path d="M11.7689 7.19202H10.4791V15.8181H11.7689V7.19202Z" fill="black"/>
<defs>
<filter id="filter0_b_92_15" x="-4" y="-4" width="24" height="26" filterUnits="userSpaceOnUse" color-interpolation-filters="sRGB">
<feFlood flood-opacity="0" result="BackgroundImageFix"/>
<feGaussianBlur in="BackgroundImageFix" stdDeviation="2"/>
<feComposite in2="SourceAlpha" operator="in" result="effect1_backgroundBlur_92_15"/>
<feBlend mode="normal" in="SourceGraphic" in2="effect1_backgroundBlur_92_15" result="shape"/>
</filter>
</defs>
</svg>
