<svg width="281" height="281" viewBox="0 0 281 281" fill="none" xmlns="http://www.w3.org/2000/svg">
<path d="M184.406 124.035C184.406 133.128 179.492 140.5 173.43 140.5C167.367 140.5 162.453 133.128 162.453 124.035C162.453 114.942 167.367 107.57 173.43 107.57C179.492 107.57 184.406 114.942 184.406 124.035Z" fill="#7C7C7C"/>
<path d="M96.5938 124.035C96.5938 128.402 97.7502 132.59 99.8087 135.678C101.867 138.765 104.659 140.5 107.57 140.5C110.481 140.5 113.273 138.765 115.332 135.678C117.39 132.59 118.547 128.402 118.547 124.035C118.547 119.668 117.39 115.481 115.332 112.393C113.273 109.305 110.481 107.57 107.57 107.57C104.659 107.57 101.867 109.305 99.8087 112.393C97.7502 115.481 96.5938 119.668 96.5938 124.035Z" fill="#7C7C7C"/>
<path d="M250.266 143.8C250.266 81.3553 201.121 30.7344 140.5 30.7344C79.8781 30.7344 30.7344 81.3553 30.7344 143.8V225.272C30.7344 239.786 45.5635 249.227 58.167 242.736C68.3539 237.489 80.4889 238.267 89.9654 244.775C100.626 252.095 114.515 252.095 125.176 244.775L129.046 242.117C135.982 237.354 145.018 237.354 151.954 242.117L155.824 244.775C166.486 252.095 180.373 252.095 191.035 244.775C200.511 238.267 212.646 237.489 222.833 242.736C235.436 249.227 250.266 239.786 250.266 225.272V184.536" stroke="#7C7C7C" stroke-width="7" stroke-linecap="round"/>
</svg>
