<svg width="22" height="22" viewBox="0 0 22 22" fill="none" xmlns="http://www.w3.org/2000/svg">
<path d="M4.76668 9.52979C4.56391 9.52979 4.40002 9.69407 4.40002 9.89648V12.0967C4.40002 12.2991 4.56391 12.4634 4.76668 12.4634C4.96945 12.4634 5.13333 12.2991 5.13333 12.0967V9.89648C5.13337 9.69407 4.96945 9.52979 4.76668 9.52979Z" fill="white" stroke="white" stroke-width="0.00103"/>
<path d="M21.6334 10.6298H9.31773L12.3592 7.58832C12.5026 7.44492 12.5026 7.21316 12.3592 7.0698C12.2158 6.92644 11.9841 6.92644 11.8408 7.0698L8.17412 10.7365C8.16238 10.7483 8.15762 10.7633 8.14808 10.7762C8.12827 10.8015 8.10738 10.8257 8.09527 10.8554C8.07619 10.9005 8.06665 10.9481 8.06665 10.9962V10.9966C8.06665 11.0035 8.0703 11.0094 8.07069 11.016C8.07288 11.0567 8.07877 11.0974 8.09454 11.1355C8.11362 11.1817 8.14146 11.2232 8.17665 11.2577L11.8408 14.9229C11.9123 14.9944 12.0062 15.0304 12.1 15.0304C12.1939 15.0304 12.2877 14.9944 12.3592 14.9229C12.5026 14.7799 12.5026 14.5478 12.3592 14.4044L9.31919 11.3633H21.6333C21.8361 11.3633 22 11.199 22 10.9966C22 10.7941 21.8361 10.6298 21.6334 10.6298Z" fill="white" stroke="white" stroke-width="0.00103"/>
<path d="M4.80628 0.0979531L1.33908 1.48519C0.363001 1.84677 0 2.33744 0 3.29562V18.7007C0 19.6589 0.363001 20.1496 1.33062 20.5082L4.81324 21.9017C4.98559 21.967 5.15862 22 5.32766 22C6.06505 22 6.60001 21.3839 6.60001 20.535V1.46211C6.60001 0.418795 5.76839 -0.264014 4.80628 0.0979531ZM5.86666 20.535C5.86666 20.9725 5.64997 21.2666 5.32766 21.2666C5.24774 21.2666 5.1612 21.2493 5.0787 21.2185L1.59427 19.8239C0.902388 19.5676 0.733349 19.3468 0.733349 18.7007V3.29562C0.733349 2.64947 0.902388 2.4291 1.60274 2.16946L5.07178 0.781836C5.16124 0.748102 5.2474 0.730869 5.32771 0.730869C5.65001 0.730869 5.86671 1.02459 5.86671 1.46211L5.86666 20.535Z" fill="white" stroke="white" stroke-width="0.00103"/>
<path d="M14.3 12.8301C14.0973 12.8301 13.9334 12.9944 13.9334 13.1968V18.6974C13.9334 19.3039 13.4398 19.7975 12.8334 19.7975H7.70003C7.49726 19.7975 7.33337 19.9618 7.33337 20.1642C7.33337 20.3666 7.49726 20.5309 7.70003 20.5309H12.8334C13.8443 20.5309 14.6667 19.7084 14.6667 18.6974V13.1967C14.6667 12.9944 14.5028 12.8301 14.3 12.8301Z" fill="white" stroke="white" stroke-width="0.00103"/>
<path d="M7.65413 2.19547H12.8333C13.4398 2.19547 13.9333 2.68906 13.9333 3.29559V8.79622C13.9333 8.99863 14.0972 9.16292 14.2999 9.16292C14.5027 9.16292 14.6666 8.99863 14.6666 8.79622V3.29559C14.6666 2.2846 13.8442 1.46204 12.8332 1.46204H7.65413C7.45136 1.46204 7.28748 1.62632 7.28748 1.82873C7.28748 2.03114 7.45136 2.19547 7.65413 2.19547Z" fill="white" stroke="white" stroke-width="0.00103"/>
</svg>
