<svg width="30" height="30" viewBox="0 0 30 30" fill="none" xmlns="http://www.w3.org/2000/svg">
<g clip-path="url(#clip0_19_12)">
<path d="M15.0352 0.46875C6.82617 0.46875 0.46875 6.46289 0.46875 14.5664C0.46875 18.8027 2.20898 22.4648 5.04492 24.9902C5.53711 25.4297 5.43164 25.6875 5.51953 28.4004C5.52583 28.5904 5.57848 28.7759 5.67289 28.9409C5.7673 29.1058 5.9006 29.2452 6.0612 29.3469C6.22179 29.4486 6.4048 29.5094 6.5943 29.5242C6.7838 29.539 6.97403 29.5072 7.14844 29.4316C10.248 28.0664 10.2891 27.9609 10.8164 28.1016C19.7988 30.5742 29.5312 24.8262 29.5312 14.5664C29.5312 6.46289 23.2383 0.46875 15.0352 0.46875ZM23.7773 11.3145L19.5 18.0879C19.3382 18.3421 19.1256 18.5602 18.8757 18.7285C18.6257 18.8969 18.3437 19.0119 18.0473 19.0663C17.7509 19.1208 17.4465 19.1135 17.153 19.0449C16.8596 18.9764 16.5834 18.8481 16.3418 18.668L12.9375 16.1191C12.7854 16.005 12.6003 15.9434 12.4102 15.9434C12.22 15.9434 12.0349 16.005 11.8828 16.1191L7.28906 19.5996C6.67383 20.0625 5.87109 19.3301 6.28711 18.6797L10.5645 11.9062C10.7263 11.652 10.9388 11.434 11.1888 11.2656C11.4387 11.0973 11.7207 10.9823 12.0171 10.9278C12.3135 10.8734 12.618 10.8807 12.9114 10.9492C13.2049 11.0177 13.481 11.1461 13.7227 11.3262L17.127 13.875C17.2791 13.9891 17.4641 14.0508 17.6543 14.0508C17.8445 14.0508 18.0295 13.9891 18.1816 13.875L22.7754 10.3945C23.3848 9.92578 24.1875 10.6582 23.7773 11.3086V11.3145Z" fill="#FFFCFC"/>
</g>
<defs>
<clipPath id="clip0_19_12">
<rect width="30" height="30" fill="white"/>
</clipPath>
</defs>
</svg>
