<svg width="41" height="41" viewBox="0 0 41 41" fill="none" xmlns="http://www.w3.org/2000/svg">
<g clip-path="url(#clip0_123_26)">
<g filter="url(#filter0_d_123_26)">
<path d="M38.9229 -2.7471L43.2993 -2.33331L43.9581 2.01297C44.0056 2.32672 44.1939 2.60156 44.4693 2.75919L48.2519 4.92414L47.0771 9.22302C46.9946 9.52479 47.0525 9.84765 47.2346 10.102L49.778 13.6542L46.9595 17.162C46.7672 17.4012 46.6906 17.7133 46.7501 18.0144L47.6071 22.351L43.6285 24.4484C43.36 24.5899 43.1668 24.8418 43.0996 25.1379L42.1091 29.5055L37.6691 29.8223C37.3652 29.844 37.086 29.998 36.9056 30.2436L34.2381 33.8741L30.115 32.3631C29.8241 32.2565 29.5009 32.2853 29.2333 32.4415L25.3624 34.7021L22.265 31.6376C22.0408 31.4157 21.7278 31.3076 21.4144 31.344L17.018 31.8537L15.4684 27.7655C15.3557 27.4682 15.1131 27.2388 14.8099 27.143L10.6412 25.8252L10.9034 21.4072C10.922 21.0922 10.7966 20.7858 10.5625 20.5744L7.32893 17.6539L9.36874 13.6622C9.50971 13.3863 9.52026 13.0619 9.3975 12.7775L7.65748 8.74568L11.1326 5.87868C11.3677 5.68474 11.5058 5.3974 11.5104 5.09268L11.5774 0.641888L15.8826 -0.592174C16.1744 -0.675816 16.4151 -0.882858 16.5413 -1.1589L18.4122 -5.24894L22.79 -4.63666C23.094 -4.59415 23.4012 -4.68819 23.6293 -4.89358L26.9734 -7.90456L30.6627 -5.5645C30.9269 -5.39694 31.2525 -5.3573 31.5491 -5.45657L35.7753 -6.87079L38.1491 -3.21569C38.322 -2.94956 38.607 -2.77698 38.9229 -2.7471Z" fill="#F80707" stroke="white" stroke-width="1.3"/>
<g filter="url(#filter1_b_123_26)">
<path d="M27.7736 6.09077L27.0833 5.43814L27.4865 5.1863C27.7529 5.43819 28.0634 5.66291 28.4179 5.86046C28.7725 6.058 29.2559 6.22599 29.8681 6.36442L23.5741 10.7077L22.5277 9.71843L27.7736 6.09077ZM26.0431 13.1107C25.6168 12.7076 25.3768 12.3064 25.3232 11.9071C25.2695 11.5077 25.403 11.1385 25.7236 10.7994C26.0121 10.4942 26.3306 10.332 26.679 10.3128C27.032 10.2887 27.349 10.4095 27.63 10.6751C27.9255 10.9545 27.9807 11.2406 27.7956 11.5335C27.5741 11.3699 27.3455 11.2915 27.1099 11.2981C26.8837 11.3044 26.6813 11.4021 26.5027 11.591C26.3424 11.7606 26.2673 11.9419 26.2775 12.135C26.2876 12.328 26.3775 12.5047 26.547 12.665C26.828 12.9306 27.1772 13.0222 27.5946 12.9397C28.012 12.8573 28.4062 12.6199 28.7771 12.2274C29.0932 11.8932 29.2656 11.57 29.2946 11.2579C29.3281 10.941 29.219 10.6635 28.967 10.4254C28.7103 10.1826 28.2899 9.99165 27.706 9.85242L27.6733 9.69771L30.8365 7.47257C31.3244 8.05307 31.7016 8.46927 31.968 8.72116C32.4089 9.13793 32.8945 9.46855 33.4248 9.71303C33.3337 9.82877 33.263 9.91329 33.2126 9.96658C32.9745 10.2185 32.7143 10.3578 32.4321 10.3846C32.1547 10.416 31.8707 10.2943 31.58 10.0195C31.4686 9.91416 31.3468 9.77611 31.2147 9.60533C31.0826 9.43455 30.96 9.26822 30.847 9.10634C30.7488 8.96762 30.6459 8.82903 30.5382 8.69058L29.0041 9.73108C29.461 9.87859 29.8324 10.0874 30.1182 10.3577C30.5154 10.7332 30.6997 11.1643 30.6709 11.6508C30.6515 12.1371 30.4243 12.6103 29.9892 13.0706C29.6183 13.463 29.2036 13.7269 28.7452 13.8624C28.2917 14.0025 27.8274 14.0084 27.3522 13.8803C26.8864 13.7519 26.4501 13.4954 26.0431 13.1107ZM31.9274 13.9258C31.3752 13.4037 31.4402 12.7818 32.1226 12.0599C32.4661 11.6966 32.8475 11.4242 33.2669 11.2426C33.6862 11.0611 34.0897 10.9884 34.4774 11.0247C34.8746 11.0607 35.2088 11.2069 35.4801 11.4634C35.7611 11.729 35.8848 12.0203 35.8513 12.3372C35.8223 12.6493 35.6384 12.9846 35.2995 13.343C34.9605 13.7015 34.579 13.9693 34.1548 14.1462C33.7355 14.3278 33.3273 14.4006 32.9301 14.3646C32.533 14.3286 32.1987 14.1823 31.9274 13.9258ZM32.3108 13.7241C32.4368 13.8432 32.6402 13.8657 32.9211 13.7918C33.202 13.7179 33.516 13.5653 33.8632 13.3339C34.2104 13.1025 34.5443 12.8172 34.8649 12.4781C35.0481 12.2843 35.1616 12.1302 35.2056 12.0158C35.2495 11.9014 35.2303 11.8052 35.148 11.7274C35.0269 11.6129 34.8187 11.5904 34.5236 11.66C34.2379 11.7294 33.9188 11.8727 33.5665 12.0901C33.2191 12.3121 32.9034 12.5733 32.6194 12.8736C32.4225 13.0819 32.2976 13.2529 32.2448 13.3864C32.1968 13.5245 32.2188 13.6371 32.3108 13.7241ZM37.8171 13.8241L38.3403 14.3187L30.1513 16.9255L29.6281 16.4309L37.8171 13.8241ZM32.5808 19.3048C32.0285 18.7827 32.0935 18.1608 32.7759 17.4389C33.1194 17.0756 33.5008 16.8032 33.9202 16.6216C34.3395 16.4401 34.743 16.3674 35.1308 16.4037C35.5279 16.4397 35.8621 16.5859 36.1334 16.8424C36.4144 17.108 36.5381 17.3993 36.5046 17.7162C36.4756 18.0283 36.2917 18.3636 35.9528 18.722C35.6139 19.0805 35.2323 19.3483 34.8081 19.5252C34.3888 19.7068 33.9806 19.7796 33.5834 19.7436C33.1863 19.7076 32.8521 19.5613 32.5808 19.3048ZM32.9642 19.1031C33.0901 19.2222 33.2935 19.2447 33.5744 19.1708C33.8553 19.0969 34.1693 18.9443 34.5165 18.7129C34.8637 18.4815 35.1976 18.1962 35.5182 17.8571C35.7014 17.6633 35.815 17.5092 35.8589 17.3948C35.9028 17.2804 35.8836 17.1842 35.8013 17.1064C35.6802 16.9919 35.472 16.9694 35.1769 17.039C34.8912 17.1084 34.5722 17.2517 34.2199 17.4691C33.8724 17.6911 33.5567 17.9523 33.2727 18.2526C33.0758 18.4609 32.9509 18.6319 32.8981 18.7654C32.8501 18.9035 32.8721 19.0161 32.9642 19.1031ZM17.5496 18.8562C17.1427 18.4715 16.9329 18.0529 16.9202 17.6006C16.9123 17.1528 17.1488 16.6745 17.6297 16.1659C18.0373 15.7347 18.5728 15.3235 19.2362 14.9323C19.8996 14.5412 20.5599 14.2939 21.2173 14.1905C21.8794 14.0918 22.414 14.2347 22.8209 14.6195C22.9663 14.7568 23.0739 14.8953 23.1438 15.0348C22.8116 14.9593 22.3607 15.0238 21.7911 15.2284C21.2264 15.4376 20.6544 15.7272 20.0753 16.0972C19.4962 16.4671 19.0304 16.8386 18.6777 17.2117C18.4304 17.4733 18.2697 17.7112 18.1955 17.9255C18.1214 18.1398 18.157 18.3157 18.3023 18.4531C18.5397 18.6775 18.9349 18.73 19.4881 18.6107C20.0506 18.4912 20.652 18.2432 21.2922 17.8668C21.9373 17.495 22.4865 17.0693 22.9399 16.5897C23.2239 16.2894 23.4239 16.0244 23.5401 15.7947C23.6657 15.5648 23.7042 15.3398 23.6555 15.1195C23.6069 14.8992 23.4591 14.6723 23.212 14.4387C22.839 14.086 22.4193 13.8361 21.953 13.6889C21.4913 13.5368 21.0284 13.512 20.5645 13.6147C20.1099 13.717 19.7063 13.9547 19.3536 14.3278C19.23 14.4586 19.1505 14.5669 19.1152 14.6528C19.0844 14.7338 19.0645 14.7792 19.0553 14.7889C18.8131 14.5599 18.6748 14.3374 18.6404 14.1214C18.6109 13.91 18.6969 13.6978 18.8984 13.4846C19.2145 13.1503 19.6524 12.9588 20.2122 12.9101C20.7769 12.866 21.3738 12.9624 22.0029 13.1994C22.6369 13.4409 23.2034 13.7976 23.7024 14.2693C24.308 14.8418 24.5907 15.421 24.5506 16.0069C24.5104 16.5928 24.2156 17.1764 23.666 17.7577C23.1759 18.2761 22.5684 18.7247 21.8433 19.1034C21.1183 19.4822 20.3668 19.6754 19.5889 19.6831C18.8204 19.6906 18.1407 19.4149 17.5496 18.8562ZM26.6129 18.1492C26.2985 17.8704 25.9537 17.7645 25.5783 17.8316C25.2077 17.9033 24.7637 18.2129 24.2462 18.7604C24.0767 18.9396 23.9746 19.0816 23.9398 19.1863C23.9096 19.2862 23.8899 19.341 23.8808 19.3507C23.6192 19.1034 23.4733 18.8646 23.4433 18.6343C23.4227 18.4038 23.5314 18.1626 23.7696 17.9107C24.0947 17.5668 24.4749 17.3344 24.9101 17.2138C25.3499 17.0882 25.8363 17.1123 26.3694 17.286C26.9073 17.4642 27.462 17.8235 28.0337 18.364C28.15 18.4739 28.2935 18.6325 28.4644 18.84C28.7812 19.2036 29.0122 19.4541 29.1575 19.5915C29.4143 19.8343 29.6598 20.0113 29.894 20.1226C29.8382 20.1525 29.72 20.2242 29.5393 20.3377C29.3631 20.4464 29.1738 20.506 28.9713 20.5164C28.7782 20.5265 28.5809 20.4684 28.3793 20.342C28.0934 20.0718 27.7978 19.7052 27.4925 19.2422L25.8202 20.3997L26.8811 21.4027L26.2565 21.8305L25.1955 20.8275L22.0239 23.0034L20.9775 22.0142L26.6129 18.1492ZM29.9482 21.3023C29.6339 21.0235 29.289 20.9176 28.9136 20.9848C28.5431 21.0565 28.099 21.366 27.5815 21.9135C27.4121 22.0927 27.3099 22.2347 27.2751 22.3394C27.2449 22.4393 27.2253 22.4941 27.2161 22.5038C26.9545 22.2565 26.8087 22.0177 26.7786 21.7875C26.758 21.557 26.8668 21.3158 27.1049 21.0638C27.4301 20.7199 27.8103 20.4876 28.2455 20.3669C28.6852 20.2413 29.1716 20.2654 29.7047 20.4391C30.2426 20.6173 30.7974 20.9766 31.369 21.5171C31.4853 21.627 31.6289 21.7857 31.7998 21.9931C32.1165 22.3567 32.3476 22.6073 32.4929 22.7447C32.7496 22.9874 32.9951 23.1644 33.2293 23.2757C33.1736 23.3056 33.0553 23.3773 32.8746 23.4908C32.6985 23.5995 32.5091 23.6591 32.3066 23.6695C32.1136 23.6796 31.9162 23.6215 31.7146 23.4951C31.4288 23.2249 31.1332 22.8583 30.8278 22.3953L29.1555 23.5528L30.2165 24.5558L29.5918 24.9837L28.5309 23.9807L25.3592 26.1565L24.3128 25.1673L29.9482 21.3023Z" fill="#101010"/>
<g filter="url(#filter2_b_123_26)">
<path d="M27.0761 5.43134L26.3858 4.77871L26.789 4.52688C27.0554 4.77877 27.3659 5.00349 27.7204 5.20103C28.075 5.39857 28.5583 5.56656 29.1706 5.70499L22.8766 10.0483L21.8302 9.05901L27.0761 5.43134ZM25.3456 12.4512C24.9193 12.0482 24.6793 11.647 24.6257 11.2477C24.572 10.8483 24.7055 10.4791 25.0261 10.14C25.3146 9.83477 25.6331 9.67256 25.9815 9.65334C26.3345 9.62928 26.6515 9.75007 26.9325 10.0157C27.228 10.2951 27.2832 10.5812 27.0981 10.8741C26.8766 10.7105 26.648 10.632 26.4124 10.6387C26.1862 10.645 25.9838 10.7427 25.8052 10.9316C25.6449 11.1011 25.5698 11.2825 25.58 11.4755C25.5901 11.6686 25.68 11.8453 25.8495 12.0056C26.1305 12.2712 26.4797 12.3628 26.8971 12.2803C27.3145 12.1979 27.7087 11.9604 28.0796 11.568C28.3956 11.2338 28.5681 10.9106 28.5971 10.5985C28.6306 10.2816 28.5215 10.0041 28.2695 9.76593C28.0128 9.5232 27.5924 9.33222 27.0084 9.193L26.9758 9.03829L30.139 6.81315C30.6269 7.39365 31.0041 7.80985 31.2705 8.06174C31.7114 8.47851 32.197 8.80913 32.7273 9.05361C32.6362 9.16935 32.5655 9.25386 32.5151 9.30715C32.277 9.55907 32.0168 9.69842 31.7346 9.72521C31.4572 9.75658 31.1732 9.63487 30.8825 9.36008C30.7711 9.25474 30.6493 9.11668 30.5172 8.94591C30.3851 8.77513 30.2625 8.6088 30.1495 8.44691C30.0513 8.3082 29.9484 8.16961 29.8407 8.03115L28.3066 9.07165C28.7635 9.21916 29.1348 9.42802 29.4207 9.69823C29.8179 10.0738 30.0022 10.5048 29.9734 10.9914C29.954 11.4777 29.7268 11.9509 29.2917 12.4111C28.9208 12.8035 28.5061 13.0675 28.0477 13.203C27.5942 13.343 27.1299 13.349 26.6547 13.2209C26.1889 13.0925 25.7526 12.8359 25.3456 12.4512ZM31.2299 13.2664C30.6777 12.7443 30.7427 12.1223 31.4251 11.4005C31.7686 11.0372 32.15 10.7647 32.5694 10.5832C32.9887 10.4016 33.3922 10.329 33.7799 10.3653C34.1771 10.4013 34.5113 10.5475 34.7826 10.804C35.0636 11.0696 35.1873 11.3609 35.1538 11.6778C35.1248 11.9898 34.9409 12.3251 34.6019 12.6836C34.263 13.0421 33.8815 13.3098 33.4573 13.4868C33.038 13.6684 32.6297 13.7411 32.2326 13.7051C31.8355 13.6691 31.5012 13.5229 31.2299 13.2664ZM31.6133 13.0647C31.7393 13.1837 31.9427 13.2063 32.2236 13.1324C32.5045 13.0585 32.8185 12.9058 33.1657 12.6744C33.5129 12.443 33.8468 12.1578 34.1674 11.8187C34.3506 11.6249 34.4641 11.4708 34.5081 11.3564C34.552 11.242 34.5328 11.1458 34.4505 11.068C34.3294 10.9535 34.1212 10.931 33.8261 11.0006C33.5404 11.0699 33.2213 11.2133 32.869 11.4307C32.5216 11.6527 32.2059 11.9138 31.9219 12.2142C31.725 12.4225 31.6001 12.5934 31.5473 12.727C31.4993 12.8651 31.5213 12.9776 31.6133 13.0647ZM37.1196 13.1647L37.6428 13.6593L29.4538 16.2661L28.9305 15.7715L37.1196 13.1647ZM31.8832 18.6454C31.331 18.1233 31.396 17.5014 32.0784 16.7795C32.4219 16.4162 32.8033 16.1437 33.2227 15.9622C33.642 15.7806 34.0455 15.708 34.4332 15.7443C34.8304 15.7803 35.1646 15.9265 35.4359 16.183C35.7169 16.4486 35.8406 16.7399 35.8071 17.0568C35.7781 17.3689 35.5942 17.7041 35.2553 18.0626C34.9163 18.4211 34.5348 18.6889 34.1106 18.8658C33.6913 19.0474 33.2831 19.1201 32.8859 19.0841C32.4888 19.0481 32.1545 18.9019 31.8832 18.6454ZM32.2666 18.4437C32.3926 18.5627 32.596 18.5853 32.8769 18.5114C33.1578 18.4375 33.4718 18.2848 33.819 18.0534C34.1662 17.822 34.5001 17.5368 34.8207 17.1977C35.0039 17.0039 35.1174 16.8498 35.1614 16.7354C35.2053 16.621 35.1861 16.5248 35.1038 16.447C34.9827 16.3325 34.7745 16.31 34.4794 16.3796C34.1937 16.4489 33.8746 16.5923 33.5223 16.8097C33.1749 17.0317 32.8592 17.2928 32.5752 17.5932C32.3783 17.8015 32.2534 17.9724 32.2006 18.106C32.1526 18.2441 32.1746 18.3566 32.2666 18.4437ZM16.8521 18.1968C16.4452 17.8121 16.2354 17.3935 16.2227 16.9411C16.2148 16.4934 16.4513 16.0151 16.9322 15.5064C17.3398 15.0753 17.8753 14.6641 18.5387 14.2729C19.2021 13.8817 19.8624 13.6345 20.5198 13.5311C21.1819 13.4324 21.7165 13.5753 22.1234 13.96C22.2688 14.0974 22.3764 14.2359 22.4463 14.3754C22.1141 14.2998 21.6632 14.3644 21.0936 14.569C20.5288 14.7782 19.9569 15.0678 19.3778 15.4378C18.7987 15.8077 18.3329 16.1792 17.9802 16.5522C17.7329 16.8138 17.5722 17.0518 17.498 17.2661C17.4239 17.4804 17.4595 17.6562 17.6048 17.7936C17.8422 18.018 18.2374 18.0706 18.7905 17.9513C19.3531 17.8318 19.9545 17.5838 20.5947 17.2074C21.2398 16.8356 21.789 16.4099 22.2424 15.9303C22.5264 15.6299 22.7264 15.3649 22.8426 15.1353C22.9682 14.9054 23.0067 14.6803 22.958 14.4601C22.9094 14.2398 22.7616 14.0128 22.5145 13.7793C22.1415 13.4266 21.7218 13.1767 21.2555 13.0294C20.7938 12.8773 20.3309 12.8526 19.8669 12.9552C19.4124 13.0576 19.0088 13.2953 18.6561 13.6683C18.5325 13.7991 18.453 13.9075 18.4177 13.9934C18.3869 14.0744 18.367 14.1198 18.3578 14.1294C18.1156 13.9005 17.9773 13.678 17.9429 13.462C17.9134 13.2506 17.9994 13.0383 18.2009 12.8252C18.5169 12.4909 18.9549 12.2994 19.5147 12.2507C20.0794 12.2065 20.6763 12.3029 21.3054 12.5399C21.9394 12.7815 22.5059 13.1382 23.0049 13.6099C23.6105 14.1824 23.8932 14.7615 23.853 15.3474C23.8129 15.9333 23.518 16.517 22.9685 17.0983C22.4784 17.6167 21.8709 18.0652 21.1458 18.444C20.4208 18.8228 19.6693 19.016 18.8914 19.0237C18.1229 19.0312 17.4432 18.7555 16.8521 18.1968ZM25.9154 17.4898C25.601 17.2109 25.2561 17.1051 24.8808 17.1722C24.5102 17.2439 24.0662 17.5535 23.5487 18.1009C23.3792 18.2802 23.2771 18.4222 23.2423 18.5269C23.2121 18.6268 23.1924 18.6816 23.1832 18.6912C22.9216 18.4439 22.7758 18.2052 22.7458 17.9749C22.7252 17.7444 22.8339 17.5032 23.0721 17.2513C23.3972 16.9073 23.7774 16.675 24.2126 16.5543C24.6524 16.4288 25.1388 16.4529 25.6719 16.6265C26.2098 16.8048 26.7645 17.1641 27.3362 17.7045C27.4525 17.8144 27.596 17.9731 27.7669 18.1805C28.0837 18.5442 28.3147 18.7947 28.46 18.9321C28.7168 19.1748 28.9623 19.3519 29.1965 19.4632C29.1407 19.4931 29.0225 19.5648 28.8418 19.6783C28.6656 19.787 28.4763 19.8465 28.2738 19.8569C28.0807 19.8671 27.8834 19.809 27.6818 19.6826C27.3959 19.4124 27.1003 19.0458 26.7949 18.5827L25.1227 19.7403L26.1836 20.7433L25.559 21.1711L24.498 20.1681L21.3264 22.344L20.28 21.3547L25.9154 17.4898ZM29.2507 20.6429C28.9364 20.364 28.5915 20.2582 28.2161 20.3253C27.8456 20.397 27.4015 20.7066 26.884 21.254C26.7145 21.4333 26.6124 21.5753 26.5776 21.68C26.5474 21.7799 26.5278 21.8347 26.5186 21.8444C26.257 21.5971 26.1112 21.3583 26.0811 21.128C26.0605 20.8975 26.1693 20.6563 26.4074 20.4044C26.7326 20.0605 27.1128 19.8281 27.548 19.7074C27.9877 19.5819 28.4741 19.606 29.0072 19.7796C29.5451 19.9579 30.0999 20.3172 30.6715 20.8576C30.7878 20.9676 30.9314 21.1262 31.1023 21.3336C31.419 21.6973 31.65 21.9478 31.7954 22.0852C32.0521 22.328 32.2976 22.505 32.5318 22.6163C32.4761 22.6462 32.3578 22.7179 32.1771 22.8314C32.0009 22.9401 31.8116 22.9997 31.6091 23.0101C31.4161 23.0202 31.2187 22.9621 31.0171 22.8357C30.7313 22.5655 30.4357 22.1989 30.1303 21.7359L28.458 22.8934L29.5189 23.8964L28.8943 24.3242L27.8334 23.3212L24.6617 25.4971L23.6153 24.5079L29.2507 20.6429Z" fill="white"/>
</g>
</g>
</g>
</g>
<defs>
<filter id="filter0_d_123_26" x="-0.383545" y="-12.62" width="55.8781" height="56.0374" filterUnits="userSpaceOnUse" color-interpolation-filters="sRGB">
<feFlood flood-opacity="0" result="BackgroundImageFix"/>
<feColorMatrix in="SourceAlpha" type="matrix" values="0 0 0 0 0 0 0 0 0 0 0 0 0 0 0 0 0 0 127 0" result="hardAlpha"/>
<feMorphology radius="4" operator="dilate" in="SourceAlpha" result="effect1_dropShadow_123_26"/>
<feOffset dx="-1" dy="2"/>
<feGaussianBlur stdDeviation="1"/>
<feComposite in2="hardAlpha" operator="out"/>
<feColorMatrix type="matrix" values="0 0 0 0 0 0 0 0 0 0 0 0 0 0 0 0 0 0 0.25 0"/>
<feBlend mode="normal" in2="BackgroundImageFix" result="effect1_dropShadow_123_26"/>
<feBlend mode="normal" in="SourceGraphic" in2="effect1_dropShadow_123_26" result="shape"/>
</filter>
<filter id="filter1_b_123_26" x="10.8828" y="-0.519897" width="33.3057" height="33.2893" filterUnits="userSpaceOnUse" color-interpolation-filters="sRGB">
<feFlood flood-opacity="0" result="BackgroundImageFix"/>
<feGaussianBlur in="BackgroundImageFix" stdDeviation="2"/>
<feComposite in2="SourceAlpha" operator="in" result="effect1_backgroundBlur_123_26"/>
<feBlend mode="normal" in="SourceGraphic" in2="effect1_backgroundBlur_123_26" result="shape"/>
</filter>
<filter id="filter2_b_123_26" x="10.8828" y="-0.519897" width="32.6082" height="32.6299" filterUnits="userSpaceOnUse" color-interpolation-filters="sRGB">
<feFlood flood-opacity="0" result="BackgroundImageFix"/>
<feGaussianBlur in="BackgroundImageFix" stdDeviation="2"/>
<feComposite in2="SourceAlpha" operator="in" result="effect1_backgroundBlur_123_26"/>
<feBlend mode="normal" in="SourceGraphic" in2="effect1_backgroundBlur_123_26" result="shape"/>
</filter>
<clipPath id="clip0_123_26">
<rect width="41" height="41" fill="white"/>
</clipPath>
</defs>
</svg>
