<svg width="29" height="29" viewBox="0 0 29 29" fill="none" xmlns="http://www.w3.org/2000/svg">
<path d="M14.079 0.174405C6.30319 0.270739 0.0777066 6.61615 0.173493 14.3478C0.269279 22.0794 6.65006 28.2686 14.4258 28.1723C22.2016 28.0759 28.4271 21.7305 28.3313 13.9989C28.2355 6.2673 21.8548 0.078072 14.079 0.174405ZM22.6687 18.1511C22.3794 18.4459 21.9976 18.5962 21.6143 18.601C21.231 18.6057 20.8452 18.4649 20.5491 18.1773L14.2267 12.0448L8.05792 18.3321C7.47945 18.9217 6.53088 18.9335 5.93799 18.3584C5.34509 17.7833 5.3334 16.8401 5.91187 16.2505L13.1274 8.89591C13.7059 8.3063 14.6545 8.29455 15.2474 8.86965L22.6426 16.0432C23.2355 16.6183 23.2471 17.5615 22.6687 18.1511Z" fill="url(#paint0_linear_70_55)"/>
<defs>
<linearGradient id="paint0_linear_70_55" x1="14.079" y1="0.174405" x2="14.4258" y2="28.1723" gradientUnits="userSpaceOnUse">
<stop stop-color="#E8721D"/>
<stop offset="1" stop-color="#BD1078"/>
</linearGradient>
</defs>
</svg>
