<svg width="34" height="39" viewBox="0 0 34 39" fill="none" xmlns="http://www.w3.org/2000/svg">
<path d="M23.0714 9.75C23.0714 8.13384 22.4318 6.58387 21.2931 5.44107C20.1545 4.29827 18.6102 3.65625 17 3.65625C15.3898 3.65625 13.8455 4.29827 12.7069 5.44107C11.5682 6.58387 10.9286 8.13384 10.9286 9.75C10.9286 11.3662 11.5682 12.9161 12.7069 14.0589C13.8455 15.2017 15.3898 15.8437 17 15.8438C18.6102 15.8437 20.1545 15.2017 21.2931 14.0589C22.4318 12.9161 23.0714 11.3662 23.0714 9.75ZM7.28571 9.75C7.28571 7.16414 8.30918 4.68419 10.131 2.85571C11.9527 1.02723 14.4236 0 17 0C19.5764 0 22.0473 1.02723 23.869 2.85571C25.6908 4.68419 26.7143 7.16414 26.7143 9.75C26.7143 12.3359 25.6908 14.8158 23.869 16.6443C22.0473 18.4728 19.5764 19.5 17 19.5C14.4236 19.5 11.9527 18.4728 10.131 16.6443C8.30918 14.8158 7.28571 12.3359 7.28571 9.75ZM3.74152 35.3438H30.2585C29.583 30.5221 25.4545 26.8125 20.4683 26.8125H13.5317C8.54554 26.8125 4.41696 30.5221 3.74152 35.3438ZM0 36.7377C0 29.2348 6.05625 23.1562 13.5317 23.1562H20.4683C27.9438 23.1562 34 29.2348 34 36.7377C34 37.9869 32.9906 39 31.746 39H2.25402C1.00937 39 0 37.9869 0 36.7377Z" fill="black"/>
</svg>
